<svg version="1.1"  xmlns="http://www.w3.org/2000/svg"
	 xmlns:xlink="http://www.w3.org/1999/xlink">
	<symbol class="halt" viewBox="0 0 32 32">
		<g transform="matrix(.1216 0 0 .12165 -5.4534 -4.1363)">
			<path class="circle-inner" d="M30 16A14 14 0 017.3 27a14 14 0 015.4-24.6A14 14 0 0130 16z" fill="#b73222"/>
			<path class="circle-outer" d="M30.5 16A14.6 14.6 0 017.3 27.6 14.6 14.6 0 0112 2a14.6 14.6 0 0118.5 14z" fill="none" stroke="#000" stroke-width=".2"/>
			<path class="rectangle" d="M3.2 14h25.6v4H3.2v-4z" fill="#fff"/>
		</g>
	</symbol>
	<symbol id="icon-arrow-left" class="icon-left" viewBox="0 0 32 32">
		<path fill="currentColor" d="M12.586 27.414l-10-10c-0.781-0.781-0.781-2.047 0-2.828l10-10c0.781-0.781 2.047-0.781 2.828 0s0.781 2.047 0 2.828l-6.586 6.586h19.172c1.105 0 2 0.895 2 2s-0.895 2-2 2h-19.172l6.586 6.586c0.39 0.39 0.586 0.902 0.586 1.414s-0.195 1.024-0.586 1.414c-0.781 0.781-2.047 0.781-2.828 0z"></path>
	</symbol>
	<symbol id="icon-bin" viewBox="0 0 32 32">
		<path d="M4 10v20c0 1.1 0.9 2 2 2h18c1.1 0 2-0.9 2-2v-20h-22zM10 28h-2v-14h2v14zM14 28h-2v-14h2v14zM18 28h-2v-14h2v14zM22 28h-2v-14h2v14z"></path>
		<path d="M26.5 4h-6.5v-2.5c0-0.825-0.675-1.5-1.5-1.5h-7c-0.825 0-1.5 0.675-1.5 1.5v2.5h-6.5c-0.825 0-1.5 0.675-1.5 1.5v2.5h26v-2.5c0-0.825-0.675-1.5-1.5-1.5zM18 4h-6v-1.975h6v1.975z"></path>
	</symbol>
</svg>